<svg width="1400" height="900" viewBox="0 0 1400 900" xmlns="http://www.w3.org/2000/svg">
  <style>
    .bg { fill: #f5f5f5; }
    .card { fill: #ffffff; stroke: #e5e5e5; stroke-width: 1; rx: 10; ry: 10; }
    .bar { fill: #ffffff; stroke: #e5e5e5; stroke-width: 1; rx: 10; ry: 10; }
    .title { font: 20px "Segoe UI", Arial, sans-serif; fill: #111; font-weight: 600; }
    .subtitle { font: 14px "Segoe UI", Arial, sans-serif; fill: #666; }
    .label { font: 16px "Segoe UI", Arial, sans-serif; fill: #111; font-weight: 600; }
    .text { font: 14px "Segoe UI", Arial, sans-serif; fill: #333; }
    .muted { font: 13px "Segoe UI", Arial, sans-serif; fill: #777; }
    .small { font: 12px "Segoe UI", Arial, sans-serif; fill: #777; }
    .mono { font: 13px ui-monospace, SFMono-Regular, Menlo, Consolas, "Liberation Mono", monospace; fill: #333; }
    .table { font: 13px "Segoe UI", Arial, sans-serif; fill: #333; }
    .table-head { font: 13px "Segoe UI", Arial, sans-serif; fill: #111; font-weight: 600; }
    .pill { fill: #e6f4ff; stroke: #91caff; rx: 12; ry: 12; }
    .pill-text { font: 12px "Segoe UI", Arial, sans-serif; fill: #1677ff; font-weight: 600; }
    .pill-ok { fill: #f6ffed; stroke: #b7eb8f; rx: 12; ry: 12; }
    .pill-text-ok { font: 12px "Segoe UI", Arial, sans-serif; fill: #52c41a; font-weight: 600; }
    .pill-warn { fill: #fffbe6; stroke: #ffe58f; rx: 12; ry: 12; }
    .pill-text-warn { font: 12px "Segoe UI", Arial, sans-serif; fill: #faad14; font-weight: 600; }
    .pill-err { fill: #fff2f0; stroke: #ffccc7; rx: 12; ry: 12; }
    .pill-text-err { font: 12px "Segoe UI", Arial, sans-serif; fill: #ff4d4f; font-weight: 600; }
    .btn { fill: #1677ff; rx: 8; ry: 8; }
    .btn-text { font: 13px "Segoe UI", Arial, sans-serif; fill: #fff; font-weight: 600; }
    .ghost { fill: #fafafa; stroke: #d9d9d9; rx: 8; ry: 8; }
    .ghost-text { font: 13px "Segoe UI", Arial, sans-serif; fill: #333; font-weight: 600; }
    .item { fill: #fafafa; stroke: #d9d9d9; stroke-width: 1; rx: 8; ry: 8; }
    .icon-btn { fill: #ffffff; stroke: #d9d9d9; stroke-width: 1; rx: 6; ry: 6; }
    .icon-stroke { stroke: #595959; stroke-width: 1.6; stroke-linecap: round; stroke-linejoin: round; }
    .icon-fill { fill: #595959; }
  </style>

  <!-- Background -->
  <rect x="0" y="0" width="1400" height="900" class="bg"/>

  <!-- Header -->
  <rect x="20" y="20" width="1360" height="70" class="bar"/>
  <text x="40" y="60" class="title">MySQL Database Client</text>

  <text x="420" y="50" class="subtitle">Connection</text>
  <rect x="420" y="58" width="180" height="26" class="ghost"/>
  <text x="430" y="76" class="muted">Local MySQL</text>

  <text x="620" y="50" class="subtitle">Database</text>
  <rect x="620" y="58" width="180" height="26" class="ghost"/>
  <text x="630" y="76" class="muted">app_db</text>

  <rect x="820" y="55" width="90" height="26" class="pill"/>
  <text x="835" y="73" class="pill-text">MCP Active</text>

  <rect x="930" y="55" width="90" height="26" class="pill"/>
  <text x="952" y="73" class="pill-text">DB OK</text>

  <!-- Left Column: Connections + History -->
  <rect x="20" y="110" width="280" height="770" class="card"/>
  <text x="40" y="145" class="label">Connections</text>

  <!-- Top action icons -->
  <rect x="226" y="132" width="24" height="24" class="icon-btn"/>
  <line x1="238" y1="138" x2="238" y2="150" class="icon-stroke"/>
  <line x1="232" y1="144" x2="244" y2="144" class="icon-stroke"/>

  <rect x="256" y="132" width="24" height="24" class="icon-btn"/>
  <path d="M 274 140 A 6 6 0 1 0 266 152" class="icon-stroke" fill="none"/>
  <polyline points="266,152 266,156 270,156" class="icon-stroke" fill="none"/>

  <rect x="40" y="160" width="240" height="210" class="ghost"/>

  <!-- Connection items -->
  <rect x="48" y="170" width="224" height="60" class="item"/>
  <text x="56" y="190" class="text">Local MySQL</text>
  <text x="56" y="207" class="small">127.0.0.1:3306 · root · 9ms</text>
  <text x="56" y="224" class="small">db: app_db · pool: 10</text>
  <rect x="206" y="178" width="44" height="18" class="pill-ok"/>
  <text x="220" y="191" class="pill-text-ok">OK</text>
  <rect x="254" y="176" width="18" height="18" class="icon-btn"/>
  <circle cx="263" cy="185" r="5" class="icon-stroke" fill="none"/>
  <polygon points="261,182 266,185 261,188" class="icon-fill"/>

  <rect x="48" y="238" width="224" height="60" class="item"/>
  <text x="56" y="258" class="text">Staging DB</text>
  <text x="56" y="275" class="small">10.0.1.12:3306 · app · 28ms</text>
  <text x="56" y="292" class="small">db: staging · pool: 5</text>
  <rect x="206" y="246" width="44" height="18" class="pill-warn"/>
  <text x="210" y="259" class="pill-text-warn">WARN</text>
  <rect x="254" y="244" width="18" height="18" class="icon-btn"/>
  <circle cx="263" cy="253" r="5" class="icon-stroke" fill="none"/>
  <polygon points="261,250 266,253 261,256" class="icon-fill"/>

  <rect x="48" y="306" width="224" height="60" class="item"/>
  <text x="56" y="326" class="text">Analytics</text>
  <text x="56" y="343" class="small">analytics.db:3306 · ro · timeout</text>
  <text x="56" y="360" class="small">db: warehouse · pool: 2</text>
  <rect x="206" y="314" width="44" height="18" class="pill-err"/>
  <text x="219" y="327" class="pill-text-err">ERR</text>
  <rect x="254" y="312" width="18" height="18" class="icon-btn"/>
  <circle cx="263" cy="321" r="5" class="icon-stroke" fill="none"/>
  <polygon points="261,318 266,321 261,324" class="icon-fill"/>

  <text x="40" y="505" class="label">History</text>
  <rect x="40" y="520" width="240" height="340" class="ghost"/>

  <rect x="48" y="532" width="224" height="44" class="item"/>
  <text x="56" y="552" class="small">SELECT * FROM users…</text>
  <text x="56" y="568" class="small">2m · 100 rows · Local</text>

  <rect x="48" y="582" width="224" height="44" class="item"/>
  <text x="56" y="602" class="small">SELECT id,total FROM orders…</text>
  <text x="56" y="618" class="small">12m · 500 rows · Staging</text>

  <rect x="48" y="632" width="224" height="44" class="item"/>
  <text x="56" y="652" class="small">SHOW TABLES</text>
  <text x="56" y="668" class="small">20m · 24 rows · Local</text>

  <rect x="48" y="682" width="224" height="44" class="item"/>
  <text x="56" y="702" class="small">SELECT COUNT(*) FROM sessions…</text>
  <text x="56" y="718" class="small">1h · 1 row · Analytics</text>

  <!-- Center Column: Editor + Results -->
  <rect x="320" y="110" width="700" height="770" class="card"/>
  <text x="340" y="145" class="label">SQL Editor</text>
  <rect x="340" y="160" width="660" height="280" class="ghost"/>
  <text x="350" y="185" class="muted">Tabs: SQL 1 | SQL 2</text>
  <text x="360" y="215" class="mono">SELECT id, name, email, status</text>
  <text x="360" y="235" class="mono">FROM users</text>
  <text x="360" y="255" class="mono">WHERE status = 'active'</text>
  <text x="360" y="275" class="mono">ORDER BY created_at DESC</text>
  <text x="360" y="295" class="mono">LIMIT 100;</text>

  <rect x="340" y="450" width="100" height="34" class="btn"/>
  <text x="368" y="472" class="btn-text">Run</text>
  <rect x="450" y="450" width="100" height="34" class="ghost"/>
  <text x="478" y="472" class="ghost-text">Clear</text>
  <rect x="560" y="450" width="120" height="34" class="ghost"/>
  <text x="582" y="472" class="ghost-text">Format</text>
  <rect x="690" y="450" width="140" height="34" class="ghost"/>
  <text x="712" y="472" class="ghost-text">Load History</text>

  <text x="340" y="535" class="label">Results</text>
  <rect x="340" y="550" width="660" height="310" class="ghost"/>

  <rect x="350" y="585" width="640" height="26" fill="#fafafa" stroke="#e5e5e5"/>
  <line x1="410" y1="585" x2="410" y2="845" stroke="#e5e5e5"/>
  <line x1="540" y1="585" x2="540" y2="845" stroke="#e5e5e5"/>
  <line x1="720" y1="585" x2="720" y2="845" stroke="#e5e5e5"/>
  <line x1="840" y1="585" x2="840" y2="845" stroke="#e5e5e5"/>
  <line x1="350" y1="611" x2="990" y2="611" stroke="#e5e5e5"/>
  <line x1="350" y1="637" x2="990" y2="637" stroke="#e5e5e5"/>
  <line x1="350" y1="663" x2="990" y2="663" stroke="#e5e5e5"/>
  <line x1="350" y1="689" x2="990" y2="689" stroke="#e5e5e5"/>

  <text x="360" y="603" class="table-head">id</text>
  <text x="420" y="603" class="table-head">name</text>
  <text x="550" y="603" class="table-head">email</text>
  <text x="730" y="603" class="table-head">status</text>
  <text x="850" y="603" class="table-head">created_at</text>

  <text x="360" y="629" class="table">1</text>
  <text x="420" y="629" class="table">Alice</text>
  <text x="550" y="629" class="table">alice@example.com</text>
  <text x="730" y="629" class="table">active</text>
  <text x="850" y="629" class="table">2025-01-05 10:12</text>

  <text x="360" y="655" class="table">2</text>
  <text x="420" y="655" class="table">Bob</text>
  <text x="550" y="655" class="table">bob@example.com</text>
  <text x="730" y="655" class="table">inactive</text>
  <text x="850" y="655" class="table">2025-01-04 18:47</text>

  <text x="360" y="681" class="table">3</text>
  <text x="420" y="681" class="table">Cara</text>
  <text x="550" y="681" class="table">cara@example.com</text>
  <text x="730" y="681" class="table">active</text>
  <text x="850" y="681" class="table">2025-01-03 09:20</text>

  <text x="360" y="707" class="table">4</text>
  <text x="420" y="707" class="table">Dan</text>
  <text x="550" y="707" class="table">dan@example.com</text>
  <text x="730" y="707" class="table">active</text>
  <text x="850" y="707" class="table">2024-12-28 22:01</text>

  <!-- Right Column: Schema + MCP Activity -->
  <rect x="1040" y="110" width="340" height="770" class="card"/>
  <text x="1060" y="145" class="label">Schema</text>
  <rect x="1060" y="160" width="300" height="300" class="ghost"/>
  <text x="1070" y="185" class="muted">Database: app_db</text>

  <rect x="1070" y="200" width="280" height="44" class="item"/>
  <text x="1080" y="220" class="text">users</text>
  <text x="1080" y="236" class="small">cols: 14 · rows: 120k</text>

  <rect x="1070" y="248" width="280" height="44" class="item"/>
  <text x="1080" y="268" class="text">orders</text>
  <text x="1080" y="284" class="small">cols: 21 · rows: 3.4m</text>

  <rect x="1070" y="296" width="280" height="44" class="item"/>
  <text x="1080" y="316" class="text">products</text>
  <text x="1080" y="332" class="small">cols: 9 · rows: 45k</text>

  <rect x="1070" y="344" width="280" height="44" class="item"/>
  <text x="1080" y="364" class="text">sessions</text>
  <text x="1080" y="380" class="small">cols: 6 · rows: 8.1m</text>

  <rect x="1070" y="392" width="280" height="44" class="item"/>
  <text x="1080" y="412" class="text">audit_log</text>
  <text x="1080" y="428" class="small">cols: 12 · rows: 980k</text>

  <text x="1060" y="505" class="label">MCP Activity</text>
  <rect x="1060" y="520" width="300" height="340" class="ghost"/>

  <rect x="1070" y="538" width="280" height="52" class="item"/>
  <text x="1080" y="558" class="text">08:55 listTables</text>
  <text x="1080" y="576" class="small">24 tables · 120 ms</text>

  <rect x="1070" y="596" width="280" height="52" class="item"/>
  <text x="1080" y="616" class="text">08:56 query.execute</text>
  <text x="1080" y="634" class="small">SELECT ... · 100 rows · 42 ms</text>

  <rect x="1070" y="654" width="280" height="52" class="item"/>
  <text x="1080" y="674" class="text">08:58 query.execute</text>
  <text x="1080" y="692" class="small">UPDATE users · 3 rows · 15 ms</text>

  <rect x="1070" y="712" width="280" height="52" class="item"/>
  <text x="1080" y="732" class="text">09:01 listTables</text>
  <text x="1080" y="750" class="small">24 tables · 98 ms</text>
</svg>
